<?xml version="1.0" encoding="utf-8" standalone="no"?>
<!DOCTYPE svg PUBLIC "-//W3C//DTD SVG 1.1//EN"
  "http://www.w3.org/Graphics/SVG/1.1/DTD/svg11.dtd">
<svg xmlns:xlink="http://www.w3.org/1999/xlink" width="720pt" height="432pt" viewBox="0 0 720 432" xmlns="http://www.w3.org/2000/svg" version="1.1">
 <metadata>
  <rdf:RDF xmlns:dc="http://purl.org/dc/elements/1.1/" xmlns:cc="http://creativecommons.org/ns#" xmlns:rdf="http://www.w3.org/1999/02/22-rdf-syntax-ns#">
   <cc:Work>
    <dc:type rdf:resource="http://purl.org/dc/dcmitype/StillImage"/>
    <dc:date>2024-09-14T21:31:16.158768</dc:date>
    <dc:format>image/svg+xml</dc:format>
    <dc:creator>
     <cc:Agent>
      <dc:title>Matplotlib v3.9.2, https://matplotlib.org/</dc:title>
     </cc:Agent>
    </dc:creator>
   </cc:Work>
  </rdf:RDF>
 </metadata>
 <defs>
  <style type="text/css">*{stroke-linejoin: round; stroke-linecap: butt}</style>
 </defs>
 <g id="figure_1">
  <g id="patch_1">
   <path d="M 0 432 
L 720 432 
L 720 0 
L 0 0 
z
" style="fill: #ffffff"/>
  </g>
  <g id="axes_1">
   <g id="patch_2">
    <path d="M 90 384.48 
L 648 384.48 
L 648 51.84 
L 90 51.84 
z
" style="fill: #ffffff"/>
   </g>
   <g id="matplotlib.axis_1">
    <g id="xtick_1">
     <g id="line2d_1">
      <defs>
       <path id="mb32756ae64" d="M 0 0 
L 0 3.5 
" style="stroke: #000000; stroke-width: 0.8"/>
      </defs>
      <g>
       <use xlink:href="#mb32756ae64" x="115.363636" y="384.48" style="stroke: #000000; stroke-width: 0.8"/>
      </g>
     </g>
     <g id="text_1">
      <!-- 0 -->
      <g transform="translate(112.182386 399.078438) scale(0.1 -0.1)">
       <defs>
        <path id="DejaVuSans-30" d="M 2034 4250 
Q 1547 4250 1301 3770 
Q 1056 3291 1056 2328 
Q 1056 1369 1301 889 
Q 1547 409 2034 409 
Q 2525 409 2770 889 
Q 3016 1369 3016 2328 
Q 3016 3291 2770 3770 
Q 2525 4250 2034 4250 
z
M 2034 4750 
Q 2819 4750 3233 4129 
Q 3647 3509 3647 2328 
Q 3647 1150 3233 529 
Q 2819 -91 2034 -91 
Q 1250 -91 836 529 
Q 422 1150 422 2328 
Q 422 3509 836 4129 
Q 1250 4750 2034 4750 
z
" transform="scale(0.015625)"/>
       </defs>
       <use xlink:href="#DejaVuSans-30"/>
      </g>
     </g>
    </g>
    <g id="xtick_2">
     <g id="line2d_2">
      <g>
       <use xlink:href="#mb32756ae64" x="178.772727" y="384.48" style="stroke: #000000; stroke-width: 0.8"/>
      </g>
     </g>
     <g id="text_2">
      <!-- 50 -->
      <g transform="translate(172.410227 399.078438) scale(0.1 -0.1)">
       <defs>
        <path id="DejaVuSans-35" d="M 691 4666 
L 3169 4666 
L 3169 4134 
L 1269 4134 
L 1269 2991 
Q 1406 3038 1543 3061 
Q 1681 3084 1819 3084 
Q 2600 3084 3056 2656 
Q 3513 2228 3513 1497 
Q 3513 744 3044 326 
Q 2575 -91 1722 -91 
Q 1428 -91 1123 -41 
Q 819 9 494 109 
L 494 744 
Q 775 591 1075 516 
Q 1375 441 1709 441 
Q 2250 441 2565 725 
Q 2881 1009 2881 1497 
Q 2881 1984 2565 2268 
Q 2250 2553 1709 2553 
Q 1456 2553 1204 2497 
Q 953 2441 691 2322 
L 691 4666 
z
" transform="scale(0.015625)"/>
       </defs>
       <use xlink:href="#DejaVuSans-35"/>
       <use xlink:href="#DejaVuSans-30" x="63.623047"/>
      </g>
     </g>
    </g>
    <g id="xtick_3">
     <g id="line2d_3">
      <g>
       <use xlink:href="#mb32756ae64" x="242.181818" y="384.48" style="stroke: #000000; stroke-width: 0.8"/>
      </g>
     </g>
     <g id="text_3">
      <!-- 100 -->
      <g transform="translate(232.638068 399.078438) scale(0.1 -0.1)">
       <defs>
        <path id="DejaVuSans-31" d="M 794 531 
L 1825 531 
L 1825 4091 
L 703 3866 
L 703 4441 
L 1819 4666 
L 2450 4666 
L 2450 531 
L 3481 531 
L 3481 0 
L 794 0 
L 794 531 
z
" transform="scale(0.015625)"/>
       </defs>
       <use xlink:href="#DejaVuSans-31"/>
       <use xlink:href="#DejaVuSans-30" x="63.623047"/>
       <use xlink:href="#DejaVuSans-30" x="127.246094"/>
      </g>
     </g>
    </g>
    <g id="xtick_4">
     <g id="line2d_4">
      <g>
       <use xlink:href="#mb32756ae64" x="305.590909" y="384.48" style="stroke: #000000; stroke-width: 0.8"/>
      </g>
     </g>
     <g id="text_4">
      <!-- 150 -->
      <g transform="translate(296.047159 399.078438) scale(0.1 -0.1)">
       <use xlink:href="#DejaVuSans-31"/>
       <use xlink:href="#DejaVuSans-35" x="63.623047"/>
       <use xlink:href="#DejaVuSans-30" x="127.246094"/>
      </g>
     </g>
    </g>
    <g id="xtick_5">
     <g id="line2d_5">
      <g>
       <use xlink:href="#mb32756ae64" x="369" y="384.48" style="stroke: #000000; stroke-width: 0.8"/>
      </g>
     </g>
     <g id="text_5">
      <!-- 200 -->
      <g transform="translate(359.45625 399.078438) scale(0.1 -0.1)">
       <defs>
        <path id="DejaVuSans-32" d="M 1228 531 
L 3431 531 
L 3431 0 
L 469 0 
L 469 531 
Q 828 903 1448 1529 
Q 2069 2156 2228 2338 
Q 2531 2678 2651 2914 
Q 2772 3150 2772 3378 
Q 2772 3750 2511 3984 
Q 2250 4219 1831 4219 
Q 1534 4219 1204 4116 
Q 875 4013 500 3803 
L 500 4441 
Q 881 4594 1212 4672 
Q 1544 4750 1819 4750 
Q 2544 4750 2975 4387 
Q 3406 4025 3406 3419 
Q 3406 3131 3298 2873 
Q 3191 2616 2906 2266 
Q 2828 2175 2409 1742 
Q 1991 1309 1228 531 
z
" transform="scale(0.015625)"/>
       </defs>
       <use xlink:href="#DejaVuSans-32"/>
       <use xlink:href="#DejaVuSans-30" x="63.623047"/>
       <use xlink:href="#DejaVuSans-30" x="127.246094"/>
      </g>
     </g>
    </g>
    <g id="xtick_6">
     <g id="line2d_6">
      <g>
       <use xlink:href="#mb32756ae64" x="432.409091" y="384.48" style="stroke: #000000; stroke-width: 0.8"/>
      </g>
     </g>
     <g id="text_6">
      <!-- 250 -->
      <g transform="translate(422.865341 399.078438) scale(0.1 -0.1)">
       <use xlink:href="#DejaVuSans-32"/>
       <use xlink:href="#DejaVuSans-35" x="63.623047"/>
       <use xlink:href="#DejaVuSans-30" x="127.246094"/>
      </g>
     </g>
    </g>
    <g id="xtick_7">
     <g id="line2d_7">
      <g>
       <use xlink:href="#mb32756ae64" x="495.818182" y="384.48" style="stroke: #000000; stroke-width: 0.8"/>
      </g>
     </g>
     <g id="text_7">
      <!-- 300 -->
      <g transform="translate(486.274432 399.078438) scale(0.1 -0.1)">
       <defs>
        <path id="DejaVuSans-33" d="M 2597 2516 
Q 3050 2419 3304 2112 
Q 3559 1806 3559 1356 
Q 3559 666 3084 287 
Q 2609 -91 1734 -91 
Q 1441 -91 1130 -33 
Q 819 25 488 141 
L 488 750 
Q 750 597 1062 519 
Q 1375 441 1716 441 
Q 2309 441 2620 675 
Q 2931 909 2931 1356 
Q 2931 1769 2642 2001 
Q 2353 2234 1838 2234 
L 1294 2234 
L 1294 2753 
L 1863 2753 
Q 2328 2753 2575 2939 
Q 2822 3125 2822 3475 
Q 2822 3834 2567 4026 
Q 2313 4219 1838 4219 
Q 1578 4219 1281 4162 
Q 984 4106 628 3988 
L 628 4550 
Q 988 4650 1302 4700 
Q 1616 4750 1894 4750 
Q 2613 4750 3031 4423 
Q 3450 4097 3450 3541 
Q 3450 3153 3228 2886 
Q 3006 2619 2597 2516 
z
" transform="scale(0.015625)"/>
       </defs>
       <use xlink:href="#DejaVuSans-33"/>
       <use xlink:href="#DejaVuSans-30" x="63.623047"/>
       <use xlink:href="#DejaVuSans-30" x="127.246094"/>
      </g>
     </g>
    </g>
    <g id="xtick_8">
     <g id="line2d_8">
      <g>
       <use xlink:href="#mb32756ae64" x="559.227273" y="384.48" style="stroke: #000000; stroke-width: 0.8"/>
      </g>
     </g>
     <g id="text_8">
      <!-- 350 -->
      <g transform="translate(549.683523 399.078438) scale(0.1 -0.1)">
       <use xlink:href="#DejaVuSans-33"/>
       <use xlink:href="#DejaVuSans-35" x="63.623047"/>
       <use xlink:href="#DejaVuSans-30" x="127.246094"/>
      </g>
     </g>
    </g>
    <g id="xtick_9">
     <g id="line2d_9">
      <g>
       <use xlink:href="#mb32756ae64" x="622.636364" y="384.48" style="stroke: #000000; stroke-width: 0.8"/>
      </g>
     </g>
     <g id="text_9">
      <!-- 400 -->
      <g transform="translate(613.092614 399.078438) scale(0.1 -0.1)">
       <defs>
        <path id="DejaVuSans-34" d="M 2419 4116 
L 825 1625 
L 2419 1625 
L 2419 4116 
z
M 2253 4666 
L 3047 4666 
L 3047 1625 
L 3713 1625 
L 3713 1100 
L 3047 1100 
L 3047 0 
L 2419 0 
L 2419 1100 
L 313 1100 
L 313 1709 
L 2253 4666 
z
" transform="scale(0.015625)"/>
       </defs>
       <use xlink:href="#DejaVuSans-34"/>
       <use xlink:href="#DejaVuSans-30" x="63.623047"/>
       <use xlink:href="#DejaVuSans-30" x="127.246094"/>
      </g>
     </g>
    </g>
    <g id="text_10">
     <!-- Valor de N = M -->
     <g transform="translate(331.547656 412.756563) scale(0.1 -0.1)">
      <defs>
       <path id="DejaVuSans-56" d="M 1831 0 
L 50 4666 
L 709 4666 
L 2188 738 
L 3669 4666 
L 4325 4666 
L 2547 0 
L 1831 0 
z
" transform="scale(0.015625)"/>
       <path id="DejaVuSans-61" d="M 2194 1759 
Q 1497 1759 1228 1600 
Q 959 1441 959 1056 
Q 959 750 1161 570 
Q 1363 391 1709 391 
Q 2188 391 2477 730 
Q 2766 1069 2766 1631 
L 2766 1759 
L 2194 1759 
z
M 3341 1997 
L 3341 0 
L 2766 0 
L 2766 531 
Q 2569 213 2275 61 
Q 1981 -91 1556 -91 
Q 1019 -91 701 211 
Q 384 513 384 1019 
Q 384 1609 779 1909 
Q 1175 2209 1959 2209 
L 2766 2209 
L 2766 2266 
Q 2766 2663 2505 2880 
Q 2244 3097 1772 3097 
Q 1472 3097 1187 3025 
Q 903 2953 641 2809 
L 641 3341 
Q 956 3463 1253 3523 
Q 1550 3584 1831 3584 
Q 2591 3584 2966 3190 
Q 3341 2797 3341 1997 
z
" transform="scale(0.015625)"/>
       <path id="DejaVuSans-6c" d="M 603 4863 
L 1178 4863 
L 1178 0 
L 603 0 
L 603 4863 
z
" transform="scale(0.015625)"/>
       <path id="DejaVuSans-6f" d="M 1959 3097 
Q 1497 3097 1228 2736 
Q 959 2375 959 1747 
Q 959 1119 1226 758 
Q 1494 397 1959 397 
Q 2419 397 2687 759 
Q 2956 1122 2956 1747 
Q 2956 2369 2687 2733 
Q 2419 3097 1959 3097 
z
M 1959 3584 
Q 2709 3584 3137 3096 
Q 3566 2609 3566 1747 
Q 3566 888 3137 398 
Q 2709 -91 1959 -91 
Q 1206 -91 779 398 
Q 353 888 353 1747 
Q 353 2609 779 3096 
Q 1206 3584 1959 3584 
z
" transform="scale(0.015625)"/>
       <path id="DejaVuSans-72" d="M 2631 2963 
Q 2534 3019 2420 3045 
Q 2306 3072 2169 3072 
Q 1681 3072 1420 2755 
Q 1159 2438 1159 1844 
L 1159 0 
L 581 0 
L 581 3500 
L 1159 3500 
L 1159 2956 
Q 1341 3275 1631 3429 
Q 1922 3584 2338 3584 
Q 2397 3584 2469 3576 
Q 2541 3569 2628 3553 
L 2631 2963 
z
" transform="scale(0.015625)"/>
       <path id="DejaVuSans-20" transform="scale(0.015625)"/>
       <path id="DejaVuSans-64" d="M 2906 2969 
L 2906 4863 
L 3481 4863 
L 3481 0 
L 2906 0 
L 2906 525 
Q 2725 213 2448 61 
Q 2172 -91 1784 -91 
Q 1150 -91 751 415 
Q 353 922 353 1747 
Q 353 2572 751 3078 
Q 1150 3584 1784 3584 
Q 2172 3584 2448 3432 
Q 2725 3281 2906 2969 
z
M 947 1747 
Q 947 1113 1208 752 
Q 1469 391 1925 391 
Q 2381 391 2643 752 
Q 2906 1113 2906 1747 
Q 2906 2381 2643 2742 
Q 2381 3103 1925 3103 
Q 1469 3103 1208 2742 
Q 947 2381 947 1747 
z
" transform="scale(0.015625)"/>
       <path id="DejaVuSans-65" d="M 3597 1894 
L 3597 1613 
L 953 1613 
Q 991 1019 1311 708 
Q 1631 397 2203 397 
Q 2534 397 2845 478 
Q 3156 559 3463 722 
L 3463 178 
Q 3153 47 2828 -22 
Q 2503 -91 2169 -91 
Q 1331 -91 842 396 
Q 353 884 353 1716 
Q 353 2575 817 3079 
Q 1281 3584 2069 3584 
Q 2775 3584 3186 3129 
Q 3597 2675 3597 1894 
z
M 3022 2063 
Q 3016 2534 2758 2815 
Q 2500 3097 2075 3097 
Q 1594 3097 1305 2825 
Q 1016 2553 972 2059 
L 3022 2063 
z
" transform="scale(0.015625)"/>
       <path id="DejaVuSans-4e" d="M 628 4666 
L 1478 4666 
L 3547 763 
L 3547 4666 
L 4159 4666 
L 4159 0 
L 3309 0 
L 1241 3903 
L 1241 0 
L 628 0 
L 628 4666 
z
" transform="scale(0.015625)"/>
       <path id="DejaVuSans-3d" d="M 678 2906 
L 4684 2906 
L 4684 2381 
L 678 2381 
L 678 2906 
z
M 678 1631 
L 4684 1631 
L 4684 1100 
L 678 1100 
L 678 1631 
z
" transform="scale(0.015625)"/>
       <path id="DejaVuSans-4d" d="M 628 4666 
L 1569 4666 
L 2759 1491 
L 3956 4666 
L 4897 4666 
L 4897 0 
L 4281 0 
L 4281 4097 
L 3078 897 
L 2444 897 
L 1241 4097 
L 1241 0 
L 628 0 
L 628 4666 
z
" transform="scale(0.015625)"/>
      </defs>
      <use xlink:href="#DejaVuSans-56"/>
      <use xlink:href="#DejaVuSans-61" x="60.658203"/>
      <use xlink:href="#DejaVuSans-6c" x="121.9375"/>
      <use xlink:href="#DejaVuSans-6f" x="149.720703"/>
      <use xlink:href="#DejaVuSans-72" x="210.902344"/>
      <use xlink:href="#DejaVuSans-20" x="252.015625"/>
      <use xlink:href="#DejaVuSans-64" x="283.802734"/>
      <use xlink:href="#DejaVuSans-65" x="347.279297"/>
      <use xlink:href="#DejaVuSans-20" x="408.802734"/>
      <use xlink:href="#DejaVuSans-4e" x="440.589844"/>
      <use xlink:href="#DejaVuSans-20" x="515.394531"/>
      <use xlink:href="#DejaVuSans-3d" x="547.181641"/>
      <use xlink:href="#DejaVuSans-20" x="630.970703"/>
      <use xlink:href="#DejaVuSans-4d" x="662.757812"/>
     </g>
    </g>
   </g>
   <g id="matplotlib.axis_2">
    <g id="ytick_1">
     <g id="line2d_10">
      <defs>
       <path id="mf9de11926d" d="M 0 0 
L -3.5 0 
" style="stroke: #000000; stroke-width: 0.8"/>
      </defs>
      <g>
       <use xlink:href="#mf9de11926d" x="90" y="369.378968" style="stroke: #000000; stroke-width: 0.8"/>
      </g>
     </g>
     <g id="text_11">
      <!-- 0.000 -->
      <g transform="translate(54.371875 373.178187) scale(0.1 -0.1)">
       <defs>
        <path id="DejaVuSans-2e" d="M 684 794 
L 1344 794 
L 1344 0 
L 684 0 
L 684 794 
z
" transform="scale(0.015625)"/>
       </defs>
       <use xlink:href="#DejaVuSans-30"/>
       <use xlink:href="#DejaVuSans-2e" x="63.623047"/>
       <use xlink:href="#DejaVuSans-30" x="95.410156"/>
       <use xlink:href="#DejaVuSans-30" x="159.033203"/>
       <use xlink:href="#DejaVuSans-30" x="222.65625"/>
      </g>
     </g>
    </g>
    <g id="ytick_2">
     <g id="line2d_11">
      <g>
       <use xlink:href="#mf9de11926d" x="90" y="326.270481" style="stroke: #000000; stroke-width: 0.8"/>
      </g>
     </g>
     <g id="text_12">
      <!-- 0.005 -->
      <g transform="translate(54.371875 330.0697) scale(0.1 -0.1)">
       <use xlink:href="#DejaVuSans-30"/>
       <use xlink:href="#DejaVuSans-2e" x="63.623047"/>
       <use xlink:href="#DejaVuSans-30" x="95.410156"/>
       <use xlink:href="#DejaVuSans-30" x="159.033203"/>
       <use xlink:href="#DejaVuSans-35" x="222.65625"/>
      </g>
     </g>
    </g>
    <g id="ytick_3">
     <g id="line2d_12">
      <g>
       <use xlink:href="#mf9de11926d" x="90" y="283.161994" style="stroke: #000000; stroke-width: 0.8"/>
      </g>
     </g>
     <g id="text_13">
      <!-- 0.010 -->
      <g transform="translate(54.371875 286.961213) scale(0.1 -0.1)">
       <use xlink:href="#DejaVuSans-30"/>
       <use xlink:href="#DejaVuSans-2e" x="63.623047"/>
       <use xlink:href="#DejaVuSans-30" x="95.410156"/>
       <use xlink:href="#DejaVuSans-31" x="159.033203"/>
       <use xlink:href="#DejaVuSans-30" x="222.65625"/>
      </g>
     </g>
    </g>
    <g id="ytick_4">
     <g id="line2d_13">
      <g>
       <use xlink:href="#mf9de11926d" x="90" y="240.053507" style="stroke: #000000; stroke-width: 0.8"/>
      </g>
     </g>
     <g id="text_14">
      <!-- 0.015 -->
      <g transform="translate(54.371875 243.852726) scale(0.1 -0.1)">
       <use xlink:href="#DejaVuSans-30"/>
       <use xlink:href="#DejaVuSans-2e" x="63.623047"/>
       <use xlink:href="#DejaVuSans-30" x="95.410156"/>
       <use xlink:href="#DejaVuSans-31" x="159.033203"/>
       <use xlink:href="#DejaVuSans-35" x="222.65625"/>
      </g>
     </g>
    </g>
    <g id="ytick_5">
     <g id="line2d_14">
      <g>
       <use xlink:href="#mf9de11926d" x="90" y="196.94502" style="stroke: #000000; stroke-width: 0.8"/>
      </g>
     </g>
     <g id="text_15">
      <!-- 0.020 -->
      <g transform="translate(54.371875 200.744239) scale(0.1 -0.1)">
       <use xlink:href="#DejaVuSans-30"/>
       <use xlink:href="#DejaVuSans-2e" x="63.623047"/>
       <use xlink:href="#DejaVuSans-30" x="95.410156"/>
       <use xlink:href="#DejaVuSans-32" x="159.033203"/>
       <use xlink:href="#DejaVuSans-30" x="222.65625"/>
      </g>
     </g>
    </g>
    <g id="ytick_6">
     <g id="line2d_15">
      <g>
       <use xlink:href="#mf9de11926d" x="90" y="153.836534" style="stroke: #000000; stroke-width: 0.8"/>
      </g>
     </g>
     <g id="text_16">
      <!-- 0.025 -->
      <g transform="translate(54.371875 157.635752) scale(0.1 -0.1)">
       <use xlink:href="#DejaVuSans-30"/>
       <use xlink:href="#DejaVuSans-2e" x="63.623047"/>
       <use xlink:href="#DejaVuSans-30" x="95.410156"/>
       <use xlink:href="#DejaVuSans-32" x="159.033203"/>
       <use xlink:href="#DejaVuSans-35" x="222.65625"/>
      </g>
     </g>
    </g>
    <g id="ytick_7">
     <g id="line2d_16">
      <g>
       <use xlink:href="#mf9de11926d" x="90" y="110.728047" style="stroke: #000000; stroke-width: 0.8"/>
      </g>
     </g>
     <g id="text_17">
      <!-- 0.030 -->
      <g transform="translate(54.371875 114.527265) scale(0.1 -0.1)">
       <use xlink:href="#DejaVuSans-30"/>
       <use xlink:href="#DejaVuSans-2e" x="63.623047"/>
       <use xlink:href="#DejaVuSans-30" x="95.410156"/>
       <use xlink:href="#DejaVuSans-33" x="159.033203"/>
       <use xlink:href="#DejaVuSans-30" x="222.65625"/>
      </g>
     </g>
    </g>
    <g id="ytick_8">
     <g id="line2d_17">
      <g>
       <use xlink:href="#mf9de11926d" x="90" y="67.61956" style="stroke: #000000; stroke-width: 0.8"/>
      </g>
     </g>
     <g id="text_18">
      <!-- 0.035 -->
      <g transform="translate(54.371875 71.418779) scale(0.1 -0.1)">
       <use xlink:href="#DejaVuSans-30"/>
       <use xlink:href="#DejaVuSans-2e" x="63.623047"/>
       <use xlink:href="#DejaVuSans-30" x="95.410156"/>
       <use xlink:href="#DejaVuSans-33" x="159.033203"/>
       <use xlink:href="#DejaVuSans-35" x="222.65625"/>
      </g>
     </g>
    </g>
    <g id="text_19">
     <!-- Tiempo de Ejecuci贸n (segundos) -->
     <g transform="translate(48.292187 299.487344) rotate(-90) scale(0.1 -0.1)">
      <defs>
       <path id="DejaVuSans-54" d="M -19 4666 
L 3928 4666 
L 3928 4134 
L 2272 4134 
L 2272 0 
L 1638 0 
L 1638 4134 
L -19 4134 
L -19 4666 
z
" transform="scale(0.015625)"/>
       <path id="DejaVuSans-69" d="M 603 3500 
L 1178 3500 
L 1178 0 
L 603 0 
L 603 3500 
z
M 603 4863 
L 1178 4863 
L 1178 4134 
L 603 4134 
L 603 4863 
z
" transform="scale(0.015625)"/>
       <path id="DejaVuSans-6d" d="M 3328 2828 
Q 3544 3216 3844 3400 
Q 4144 3584 4550 3584 
Q 5097 3584 5394 3201 
Q 5691 2819 5691 2113 
L 5691 0 
L 5113 0 
L 5113 2094 
Q 5113 2597 4934 2840 
Q 4756 3084 4391 3084 
Q 3944 3084 3684 2787 
Q 3425 2491 3425 1978 
L 3425 0 
L 2847 0 
L 2847 2094 
Q 2847 2600 2669 2842 
Q 2491 3084 2119 3084 
Q 1678 3084 1418 2786 
Q 1159 2488 1159 1978 
L 1159 0 
L 581 0 
L 581 3500 
L 1159 3500 
L 1159 2956 
Q 1356 3278 1631 3431 
Q 1906 3584 2284 3584 
Q 2666 3584 2933 3390 
Q 3200 3197 3328 2828 
z
" transform="scale(0.015625)"/>
       <path id="DejaVuSans-70" d="M 1159 525 
L 1159 -1331 
L 581 -1331 
L 581 3500 
L 1159 3500 
L 1159 2969 
Q 1341 3281 1617 3432 
Q 1894 3584 2278 3584 
Q 2916 3584 3314 3078 
Q 3713 2572 3713 1747 
Q 3713 922 3314 415 
Q 2916 -91 2278 -91 
Q 1894 -91 1617 61 
Q 1341 213 1159 525 
z
M 3116 1747 
Q 3116 2381 2855 2742 
Q 2594 3103 2138 3103 
Q 1681 3103 1420 2742 
Q 1159 2381 1159 1747 
Q 1159 1113 1420 752 
Q 1681 391 2138 391 
Q 2594 391 2855 752 
Q 3116 1113 3116 1747 
z
" transform="scale(0.015625)"/>
       <path id="DejaVuSans-45" d="M 628 4666 
L 3578 4666 
L 3578 4134 
L 1259 4134 
L 1259 2753 
L 3481 2753 
L 3481 2222 
L 1259 2222 
L 1259 531 
L 3634 531 
L 3634 0 
L 628 0 
L 628 4666 
z
" transform="scale(0.015625)"/>
       <path id="DejaVuSans-6a" d="M 603 3500 
L 1178 3500 
L 1178 -63 
Q 1178 -731 923 -1031 
Q 669 -1331 103 -1331 
L -116 -1331 
L -116 -844 
L 38 -844 
Q 366 -844 484 -692 
Q 603 -541 603 -63 
L 603 3500 
z
M 603 4863 
L 1178 4863 
L 1178 4134 
L 603 4134 
L 603 4863 
z
" transform="scale(0.015625)"/>
       <path id="DejaVuSans-63" d="M 3122 3366 
L 3122 2828 
Q 2878 2963 2633 3030 
Q 2388 3097 2138 3097 
Q 1578 3097 1268 2742 
Q 959 2388 959 1747 
Q 959 1106 1268 751 
Q 1578 397 2138 397 
Q 2388 397 2633 464 
Q 2878 531 3122 666 
L 3122 134 
Q 2881 22 2623 -34 
Q 2366 -91 2075 -91 
Q 1284 -91 818 406 
Q 353 903 353 1747 
Q 353 2603 823 3093 
Q 1294 3584 2113 3584 
Q 2378 3584 2631 3529 
Q 2884 3475 3122 3366 
z
" transform="scale(0.015625)"/>
       <path id="DejaVuSans-75" d="M 544 1381 
L 544 3500 
L 1119 3500 
L 1119 1403 
Q 1119 906 1312 657 
Q 1506 409 1894 409 
Q 2359 409 2629 706 
Q 2900 1003 2900 1516 
L 2900 3500 
L 3475 3500 
L 3475 0 
L 2900 0 
L 2900 538 
Q 2691 219 2414 64 
Q 2138 -91 1772 -91 
Q 1169 -91 856 284 
Q 544 659 544 1381 
z
M 1991 3584 
L 1991 3584 
z
" transform="scale(0.015625)"/>
       <path id="DejaVuSans-f3" d="M 1959 3097 
Q 1497 3097 1228 2736 
Q 959 2375 959 1747 
Q 959 1119 1226 758 
Q 1494 397 1959 397 
Q 2419 397 2687 759 
Q 2956 1122 2956 1747 
Q 2956 2369 2687 2733 
Q 2419 3097 1959 3097 
z
M 1959 3584 
Q 2709 3584 3137 3096 
Q 3566 2609 3566 1747 
Q 3566 888 3137 398 
Q 2709 -91 1959 -91 
Q 1206 -91 779 398 
Q 353 888 353 1747 
Q 353 2609 779 3096 
Q 1206 3584 1959 3584 
z
M 2394 5119 
L 3016 5119 
L 1998 3944 
L 1519 3944 
L 2394 5119 
z
" transform="scale(0.015625)"/>
       <path id="DejaVuSans-6e" d="M 3513 2113 
L 3513 0 
L 2938 0 
L 2938 2094 
Q 2938 2591 2744 2837 
Q 2550 3084 2163 3084 
Q 1697 3084 1428 2787 
Q 1159 2491 1159 1978 
L 1159 0 
L 581 0 
L 581 3500 
L 1159 3500 
L 1159 2956 
Q 1366 3272 1645 3428 
Q 1925 3584 2291 3584 
Q 2894 3584 3203 3211 
Q 3513 2838 3513 2113 
z
" transform="scale(0.015625)"/>
       <path id="DejaVuSans-28" d="M 1984 4856 
Q 1566 4138 1362 3434 
Q 1159 2731 1159 2009 
Q 1159 1288 1364 580 
Q 1569 -128 1984 -844 
L 1484 -844 
Q 1016 -109 783 600 
Q 550 1309 550 2009 
Q 550 2706 781 3412 
Q 1013 4119 1484 4856 
L 1984 4856 
z
" transform="scale(0.015625)"/>
       <path id="DejaVuSans-73" d="M 2834 3397 
L 2834 2853 
Q 2591 2978 2328 3040 
Q 2066 3103 1784 3103 
Q 1356 3103 1142 2972 
Q 928 2841 928 2578 
Q 928 2378 1081 2264 
Q 1234 2150 1697 2047 
L 1894 2003 
Q 2506 1872 2764 1633 
Q 3022 1394 3022 966 
Q 3022 478 2636 193 
Q 2250 -91 1575 -91 
Q 1294 -91 989 -36 
Q 684 19 347 128 
L 347 722 
Q 666 556 975 473 
Q 1284 391 1588 391 
Q 1994 391 2212 530 
Q 2431 669 2431 922 
Q 2431 1156 2273 1281 
Q 2116 1406 1581 1522 
L 1381 1569 
Q 847 1681 609 1914 
Q 372 2147 372 2553 
Q 372 3047 722 3315 
Q 1072 3584 1716 3584 
Q 2034 3584 2315 3537 
Q 2597 3491 2834 3397 
z
" transform="scale(0.015625)"/>
       <path id="DejaVuSans-67" d="M 2906 1791 
Q 2906 2416 2648 2759 
Q 2391 3103 1925 3103 
Q 1463 3103 1205 2759 
Q 947 2416 947 1791 
Q 947 1169 1205 825 
Q 1463 481 1925 481 
Q 2391 481 2648 825 
Q 2906 1169 2906 1791 
z
M 3481 434 
Q 3481 -459 3084 -895 
Q 2688 -1331 1869 -1331 
Q 1566 -1331 1297 -1286 
Q 1028 -1241 775 -1147 
L 775 -588 
Q 1028 -725 1275 -790 
Q 1522 -856 1778 -856 
Q 2344 -856 2625 -561 
Q 2906 -266 2906 331 
L 2906 616 
Q 2728 306 2450 153 
Q 2172 0 1784 0 
Q 1141 0 747 490 
Q 353 981 353 1791 
Q 353 2603 747 3093 
Q 1141 3584 1784 3584 
Q 2172 3584 2450 3431 
Q 2728 3278 2906 2969 
L 2906 3500 
L 3481 3500 
L 3481 434 
z
" transform="scale(0.015625)"/>
       <path id="DejaVuSans-29" d="M 513 4856 
L 1013 4856 
Q 1481 4119 1714 3412 
Q 1947 2706 1947 2009 
Q 1947 1309 1714 600 
Q 1481 -109 1013 -844 
L 513 -844 
Q 928 -128 1133 580 
Q 1338 1288 1338 2009 
Q 1338 2731 1133 3434 
Q 928 4138 513 4856 
z
" transform="scale(0.015625)"/>
      </defs>
      <use xlink:href="#DejaVuSans-54"/>
      <use xlink:href="#DejaVuSans-69" x="57.958984"/>
      <use xlink:href="#DejaVuSans-65" x="85.742188"/>
      <use xlink:href="#DejaVuSans-6d" x="147.265625"/>
      <use xlink:href="#DejaVuSans-70" x="244.677734"/>
      <use xlink:href="#DejaVuSans-6f" x="308.154297"/>
      <use xlink:href="#DejaVuSans-20" x="369.335938"/>
      <use xlink:href="#DejaVuSans-64" x="401.123047"/>
      <use xlink:href="#DejaVuSans-65" x="464.599609"/>
      <use xlink:href="#DejaVuSans-20" x="526.123047"/>
      <use xlink:href="#DejaVuSans-45" x="557.910156"/>
      <use xlink:href="#DejaVuSans-6a" x="621.09375"/>
      <use xlink:href="#DejaVuSans-65" x="648.876953"/>
      <use xlink:href="#DejaVuSans-63" x="710.400391"/>
      <use xlink:href="#DejaVuSans-75" x="765.380859"/>
      <use xlink:href="#DejaVuSans-63" x="828.759766"/>
      <use xlink:href="#DejaVuSans-69" x="883.740234"/>
      <use xlink:href="#DejaVuSans-f3" x="911.523438"/>
      <use xlink:href="#DejaVuSans-6e" x="972.705078"/>
      <use xlink:href="#DejaVuSans-20" x="1036.083984"/>
      <use xlink:href="#DejaVuSans-28" x="1067.871094"/>
      <use xlink:href="#DejaVuSans-73" x="1106.884766"/>
      <use xlink:href="#DejaVuSans-65" x="1158.984375"/>
      <use xlink:href="#DejaVuSans-67" x="1220.507812"/>
      <use xlink:href="#DejaVuSans-75" x="1283.984375"/>
      <use xlink:href="#DejaVuSans-6e" x="1347.363281"/>
      <use xlink:href="#DejaVuSans-64" x="1410.742188"/>
      <use xlink:href="#DejaVuSans-6f" x="1474.21875"/>
      <use xlink:href="#DejaVuSans-73" x="1535.400391"/>
      <use xlink:href="#DejaVuSans-29" x="1587.5"/>
     </g>
    </g>
   </g>
   <g id="line2d_18">
    <path d="M 115.363636 369.312581 
L 119.168182 369.353103 
L 153.409091 369.210845 
L 155.945455 369.148769 
L 159.75 369.131525 
L 161.018182 368.756481 
L 162.286364 369.119455 
L 164.822727 369.127214 
L 171.163636 369.100487 
L 172.431818 368.984094 
L 174.968182 369.058241 
L 176.236364 369.003924 
L 180.040909 369.12549 
L 186.381818 369.003924 
L 187.65 368.987543 
L 188.918182 368.751308 
L 191.454545 368.701302 
L 192.722727 367.887414 
L 193.990909 368.762516 
L 195.259091 368.678886 
L 196.527273 368.43403 
L 197.795455 368.970299 
L 200.331818 368.992716 
L 202.868182 369.079795 
L 204.136364 368.850458 
L 205.404545 368.43403 
L 206.672727 368.588358 
L 207.940909 368.522833 
L 209.209091 367.98915 
L 210.477273 368.701303 
L 213.013636 369.041859 
L 216.818182 369.045308 
L 218.086364 368.495244 
L 221.890909 369.01427 
L 226.963636 368.947883 
L 228.231818 368.766827 
L 229.5 368.888393 
L 237.109091 368.859942 
L 238.377273 368.810798 
L 239.645455 368.622845 
L 243.45 368.665091 
L 247.254545 368.465068 
L 248.522727 368.838387 
L 256.131818 368.878047 
L 257.4 368.583185 
L 258.668182 368.775449 
L 259.936364 368.778898 
L 261.204545 368.137443 
L 262.472727 367.896036 
L 263.740909 368.590945 
L 265.009091 368.102095 
L 266.277273 368.538352 
L 267.545455 368.622845 
L 268.813636 368.514212 
L 270.081818 368.628018 
L 275.154545 368.358159 
L 276.422727 368.575426 
L 278.959091 368.682335 
L 281.495455 368.298669 
L 282.763636 367.839133 
L 285.3 367.692564 
L 286.568182 368.379713 
L 287.836364 368.233144 
L 289.104545 368.356435 
L 290.372727 368.27108 
L 291.640909 367.909831 
L 292.909091 368.27108 
L 294.177273 368.472828 
L 295.445455 367.534787 
L 296.713636 368.218487 
L 297.981818 368.446962 
L 299.25 368.516798 
L 300.518182 368.083127 
L 301.786364 368.467655 
L 303.054545 368.142616 
L 304.322727 368.183138 
L 305.590909 367.850341 
L 306.859091 367.272687 
L 308.127273 368.170206 
L 310.663636 367.843444 
L 314.468182 368.336605 
L 315.736364 368.062435 
L 317.004545 368.118476 
L 318.272727 368.029672 
L 320.809091 368.259872 
L 323.345455 367.875344 
L 324.613636 367.414083 
L 325.881818 368.17969 
L 327.15 367.811543 
L 328.418182 367.598587 
L 329.686364 367.11491 
L 330.954545 368.021051 
L 332.222727 367.864136 
L 333.490909 367.914141 
L 334.759091 366.826945 
L 336.027273 367.548582 
L 337.295455 367.978804 
L 338.563636 366.893332 
L 339.831818 367.692564 
L 341.1 367.934833 
L 342.368182 367.977942 
L 343.636364 367.713256 
L 344.904545 367.919315 
L 346.172727 367.962423 
L 347.440909 367.819303 
L 348.709091 367.966734 
L 352.513636 367.953801 
L 355.05 367.872757 
L 356.318182 367.988288 
L 357.586364 367.541684 
L 358.854545 366.67779 
L 360.122727 367.772746 
L 361.390909 367.814992 
L 362.659091 367.259755 
L 363.927273 367.84603 
L 365.195455 367.75464 
L 366.463636 367.86586 
L 367.731818 367.802059 
L 369 367.138189 
L 370.268182 367.717567 
L 371.536364 366.639855 
L 372.804545 365.341427 
L 374.072727 367.447708 
L 375.340909 367.800335 
L 376.609091 367.689115 
L 377.877273 367.387356 
L 379.145455 367.671872 
L 380.413636 366.218254 
L 381.681818 367.69515 
L 382.95 367.55979 
L 384.218182 366.561397 
L 385.486364 366.670031 
L 386.754545 367.596001 
L 388.022727 367.69515 
L 389.290909 367.596001 
L 391.827273 367.694288 
L 393.095455 366.741591 
L 394.363636 366.866605 
L 395.631818 366.774353 
L 396.9 367.578757 
L 398.168182 366.961444 
L 399.436364 367.434775 
L 400.704545 367.573585 
L 401.972727 366.541567 
L 403.240909 367.466675 
L 405.777273 366.219116 
L 407.045455 364.121457 
L 408.313636 367.434775 
L 409.581818 367.528752 
L 410.85 367.434775 
L 412.118182 367.499438 
L 414.654545 367.348558 
L 415.922727 367.432189 
L 417.190909 367.072664 
L 418.459091 367.380459 
L 419.727273 366.201873 
L 420.995455 367.44857 
L 422.263636 366.856259 
L 423.531818 367.274412 
L 424.8 366.676066 
L 426.068182 367.334763 
L 427.336364 367.353731 
L 428.604545 367.205438 
L 431.140909 367.176124 
L 432.409091 366.560535 
L 433.677273 365.809585 
L 434.945455 367.140775 
L 436.213636 366.085479 
L 437.481818 367.085596 
L 438.75 366.313954 
L 440.018182 367.033866 
L 441.286364 366.726934 
L 442.554545 367.107151 
L 445.090909 366.801942 
L 446.359091 366.974376 
L 447.627273 367.033866 
L 448.895455 366.916611 
L 450.163636 366.66572 
L 451.431818 366.922646 
L 452.7 365.558694 
L 453.968182 366.93989 
L 455.236364 366.921784 
L 456.504545 366.148418 
L 457.772727 366.893332 
L 459.040909 366.629509 
L 460.309091 366.82867 
L 461.577273 366.773491 
L 462.845455 366.911438 
L 464.113636 366.776077 
L 466.65 366.909714 
L 467.918182 366.72521 
L 469.186364 366.751937 
L 470.454545 365.644048 
L 471.722727 365.506963 
L 472.990909 366.65796 
L 474.259091 366.78901 
L 475.527273 366.317403 
L 476.795455 366.571743 
L 479.331818 366.611403 
L 480.6 366.493286 
L 481.868182 366.607954 
L 483.136364 366.007884 
L 484.404545 366.501045 
L 485.672727 366.602781 
L 486.940909 364.110249 
L 488.209091 366.602781 
L 489.477273 366.563122 
L 490.745455 366.032887 
L 492.013636 366.437245 
L 494.55 366.492424 
L 495.818182 366.187216 
L 498.354545 366.51484 
L 499.622727 365.77165 
L 500.890909 366.247567 
L 503.427273 366.450177 
L 504.695455 366.393274 
L 505.963636 366.074271 
L 508.5 366.441556 
L 509.768182 365.086225 
L 511.036364 365.273316 
L 512.304545 366.229462 
L 513.572727 366.37172 
L 514.840909 366.311368 
L 516.109091 365.559556 
L 517.377273 366.400171 
L 519.913636 366.066512 
L 521.181818 366.335509 
L 522.45 364.703421 
L 523.718182 365.756993 
L 524.986364 366.213943 
L 526.254545 365.916494 
L 527.522727 365.252623 
L 528.790909 365.90701 
L 530.059091 362.138466 
L 531.327273 365.794928 
L 532.595455 366.112207 
L 533.863636 366.014782 
L 535.131818 366.054441 
L 536.4 365.688019 
L 537.668182 365.876834 
L 538.936364 365.278489 
L 540.204545 364.434424 
L 541.472727 365.563867 
L 542.740909 364.04731 
L 544.009091 363.365334 
L 545.277273 363.480003 
L 546.545455 365.718195 
L 547.813636 364.811193 
L 549.081818 365.904424 
L 550.35 365.039667 
L 551.618182 363.978337 
L 552.886364 365.838037 
L 554.154545 364.031791 
L 555.422727 363.621398 
L 556.690909 364.522366 
L 557.959091 365.810447 
L 560.495455 365.75182 
L 561.763636 364.395627 
L 563.031818 365.81562 
L 565.568182 365.638013 
L 566.836364 365.662154 
L 568.104545 365.320735 
L 569.372727 354.924692 
L 570.640909 362.295381 
L 571.909091 365.077603 
L 573.177273 365.631978 
L 574.445455 364.795674 
L 575.713636 363.533457 
L 576.981818 363.742102 
L 578.25 365.330219 
L 579.518182 365.522483 
L 582.054545 365.506101 
L 583.322727 365.10433 
L 584.590909 365.528518 
L 585.859091 363.799867 
L 587.127273 364.84568 
L 588.395455 364.764635 
L 589.663636 365.606113 
L 590.931818 365.379362 
L 592.2 365.356084 
L 593.468182 363.135135 
L 594.736364 365.531104 
L 596.004545 365.184512 
L 597.272727 365.424195 
L 598.540909 362.107428 
L 599.809091 365.312113 
L 601.077273 365.4104 
L 602.345455 365.262969 
L 603.613636 364.3689 
L 604.881818 365.232794 
L 606.15 365.087949 
L 607.418182 364.318894 
L 608.686364 365.168131 
L 609.954545 363.393786 
L 611.222727 365.199169 
L 612.490909 364.978453 
L 613.759091 363.084267 
L 615.027273 365.204342 
L 616.295455 362.554894 
L 617.563636 364.704284 
L 618.831818 365.120711 
L 620.1 362.620419 
L 621.368182 365.067257 
L 622.636364 365.037943 
L 622.636364 365.037943 
" clip-path="url(#pccde9e9a62)" style="fill: none; stroke: #0000ff; stroke-width: 1.5; stroke-linecap: square"/>
   </g>
   <g id="line2d_19">
    <path d="M 115.363636 369.31603 
L 122.972727 369.27637 
L 131.85 369.040997 
L 139.459091 368.725443 
L 140.727273 368.644399 
L 141.995455 368.706475 
L 145.8 368.383162 
L 147.068182 368.448687 
L 148.336364 368.180552 
L 149.604545 368.075367 
L 150.872727 368.217625 
L 153.409091 367.864998 
L 154.677273 366.903679 
L 155.945455 367.517543 
L 157.213636 367.841719 
L 158.481818 367.583068 
L 159.75 367.181297 
L 161.018182 366.995931 
L 162.286364 367.029555 
L 163.554545 366.680377 
L 164.822727 367.236476 
L 166.090909 366.937303 
L 167.359091 366.854535 
L 168.627273 366.390688 
L 169.895455 366.418277 
L 171.163636 366.214805 
L 172.431818 362.723018 
L 173.7 366.194975 
L 176.236364 365.552659 
L 177.504545 365.944946 
L 178.772727 365.853556 
L 180.040909 366.133761 
L 181.309091 365.639738 
L 182.577273 365.538002 
L 183.845455 365.56904 
L 185.113636 364.965521 
L 186.381818 365.00863 
L 187.65 364.555991 
L 188.918182 364.581856 
L 190.186364 363.452413 
L 191.454545 363.553287 
L 192.722727 362.968736 
L 193.990909 363.801592 
L 195.259091 363.743826 
L 196.527273 364.143011 
L 199.063636 365.548348 
L 200.331818 365.360394 
L 201.6 365.537139 
L 202.868182 365.027597 
L 204.136364 362.160883 
L 205.404545 360.775376 
L 206.672727 360.739165 
L 207.940909 357.956081 
L 209.209091 360.891769 
L 210.477273 362.896314 
L 211.745455 364.300788 
L 215.55 364.0749 
L 216.818182 359.333828 
L 218.086364 361.540983 
L 219.354545 362.954079 
L 220.622727 363.876601 
L 223.159091 363.647263 
L 224.427273 363.629158 
L 225.695455 363.062712 
L 226.963636 360.663294 
L 228.231818 362.725604 
L 230.768182 362.399704 
L 232.036364 362.529892 
L 234.572727 362.323833 
L 235.840909 362.086736 
L 237.109091 360.851247 
L 238.377273 358.346644 
L 239.645455 358.503559 
L 240.913636 359.993388 
L 242.181818 359.141565 
L 243.45 360.013218 
L 244.718182 352.936529 
L 245.986364 354.103044 
L 247.254545 358.603571 
L 248.522727 360.405505 
L 249.790909 360.234796 
L 251.059091 360.343429 
L 252.327273 360.0934 
L 254.863636 359.789054 
L 256.131818 357.233583 
L 257.4 359.161394 
L 258.668182 359.007066 
L 259.936364 354.08149 
L 261.204545 349.860307 
L 262.472727 356.438662 
L 263.740909 351.768289 
L 265.009091 354.653971 
L 266.277273 356.625753 
L 267.545455 357.850034 
L 268.813636 356.638686 
L 270.081818 352.492511 
L 271.35 356.049824 
L 272.618182 355.764446 
L 273.886364 350.449169 
L 275.154545 355.984299 
L 277.690909 356.133454 
L 278.959091 355.70668 
L 280.227273 353.448658 
L 281.495455 336.796711 
L 282.763636 342.778445 
L 284.031818 339.901384 
L 285.3 341.682627 
L 286.568182 349.894794 
L 287.836364 347.22293 
L 289.104545 345.146825 
L 290.372727 346.96083 
L 291.640909 338.924546 
L 292.909091 351.100107 
L 294.177273 345.734825 
L 295.445455 344.568309 
L 296.713636 351.757081 
L 297.981818 352.833931 
L 299.25 347.984226 
L 300.518182 350.468999 
L 301.786364 349.779263 
L 303.054545 343.253501 
L 304.322727 343.536292 
L 305.590909 338.278781 
L 306.859091 343.803565 
L 308.127273 345.885705 
L 309.395455 339.171127 
L 310.663636 340.330745 
L 311.931818 344.901969 
L 313.2 348.120449 
L 314.468182 342.904322 
L 315.736364 340.331607 
L 317.004545 338.660723 
L 318.272727 342.875008 
L 319.540909 346.558197 
L 320.809091 341.110147 
L 322.077273 336.798436 
L 323.345455 330.933957 
L 324.613636 342.637049 
L 325.881818 342.441337 
L 327.15 339.286657 
L 328.418182 327.886187 
L 329.686364 337.529555 
L 330.954545 338.018406 
L 332.222727 339.603074 
L 333.490909 328.492292 
L 334.759091 332.96178 
L 336.027273 339.150435 
L 337.295455 339.832411 
L 338.563636 331.69784 
L 339.831818 332.619499 
L 341.1 338.897819 
L 342.368182 335.58019 
L 343.636364 327.255079 
L 344.904545 334.635252 
L 346.172727 338.533121 
L 347.440909 330.703758 
L 348.709091 332.393611 
L 349.977273 332.872977 
L 351.245455 332.453962 
L 352.513636 331.717669 
L 353.781818 332.455687 
L 355.05 336.438049 
L 356.318182 333.463563 
L 357.586364 311.573936 
L 358.854545 330.237324 
L 360.122727 330.791699 
L 361.390909 322.227767 
L 362.659091 333.189393 
L 363.927273 331.232268 
L 365.195455 328.474187 
L 366.463636 329.508791 
L 367.731818 320.737938 
L 369 310.102212 
L 370.268182 310.34362 
L 371.536364 321.444055 
L 372.804545 314.689817 
L 374.072727 317.129758 
L 375.340909 318.902379 
L 376.609091 313.226715 
L 377.877273 304.843839 
L 379.145455 306.841486 
L 380.413636 319.626601 
L 381.681818 320.139592 
L 382.95 310.259127 
L 384.218182 306.908735 
L 385.486364 306.432818 
L 386.754545 325.262605 
L 388.022727 309.389197 
L 389.290909 324.294388 
L 390.559091 326.423947 
L 391.827273 306.408677 
L 393.095455 308.324418 
L 394.363636 303.599728 
L 395.631818 317.903986 
L 396.9 310.127215 
L 398.168182 315.685623 
L 399.436364 320.107692 
L 400.704545 304.499833 
L 401.972727 315.1597 
L 403.240909 309.180553 
L 404.509091 306.370742 
L 405.777273 306.637152 
L 407.045455 309.285737 
L 408.313636 317.661716 
L 409.581818 306.436266 
L 410.85 317.375476 
L 412.118182 310.57813 
L 413.386364 316.675394 
L 414.654545 315.375242 
L 415.922727 300.116562 
L 417.190909 310.842816 
L 418.459091 307.086342 
L 419.727273 312.292985 
L 420.995455 307.995069 
L 422.263636 312.17573 
L 423.531818 314.012152 
L 424.8 304.937815 
L 426.068182 311.875695 
L 427.336364 305.048173 
L 428.604545 310.600546 
L 429.872727 302.048684 
L 431.140909 306.187961 
L 432.409091 301.815899 
L 433.677273 300.794227 
L 434.945455 297.304164 
L 436.213636 297.443836 
L 437.481818 292.36307 
L 438.75 299.75014 
L 440.018182 294.474523 
L 441.286364 303.960977 
L 442.554545 285.976116 
L 443.822727 299.24146 
L 445.090909 296.473033 
L 446.359091 302.349582 
L 447.627273 292.094935 
L 448.895455 299.068164 
L 450.163636 284.351788 
L 451.431818 290.816337 
L 452.7 290.743053 
L 453.968182 284.437143 
L 455.236364 294.667649 
L 456.504545 280.938458 
L 457.772727 294.349508 
L 459.040909 288.541071 
L 460.309091 287.765981 
L 461.577273 294.727139 
L 462.845455 286.68482 
L 464.113636 293.235585 
L 465.381818 280.449608 
L 466.65 286.844321 
L 467.918182 284.744938 
L 469.186364 276.386202 
L 470.454545 270.691571 
L 471.722727 276.954372 
L 472.990909 275.568003 
L 474.259091 277.481158 
L 475.527273 273.706579 
L 476.795455 266.325543 
L 478.063636 272.305553 
L 479.331818 286.361506 
L 481.868182 276.132724 
L 483.136364 281.474728 
L 484.404545 272.739224 
L 486.940909 280.94708 
L 488.209091 272.744397 
L 489.477273 274.735147 
L 490.745455 278.038119 
L 492.013636 272.806474 
L 493.281818 274.047136 
L 494.55 275.477475 
L 495.818182 255.955366 
L 497.086364 268.906018 
L 498.354545 270.574316 
L 499.622727 274.442872 
L 500.890909 267.427397 
L 502.159091 269.404352 
L 503.427273 274.497188 
L 504.695455 262.982049 
L 505.963636 259.154878 
L 507.231818 259.452326 
L 508.5 255.731202 
L 509.768182 253.180042 
L 511.036364 249.902934 
L 512.304545 260.098091 
L 513.572727 260.89215 
L 514.840909 260.424854 
L 516.109091 261.499117 
L 517.377273 255.489794 
L 518.645455 254.583654 
L 519.913636 254.974217 
L 521.181818 258.09872 
L 522.45 250.527145 
L 523.718182 255.270803 
L 524.986364 245.87574 
L 526.254545 249.643421 
L 527.522727 239.952633 
L 528.790909 239.656909 
L 530.059091 187.850854 
L 531.327273 234.501996 
L 532.595455 225.072446 
L 533.863636 218.893276 
L 535.131818 231.111083 
L 537.668182 208.4205 
L 538.936364 208.311004 
L 540.204545 231.890484 
L 541.472727 227.409788 
L 542.740909 228.003823 
L 544.009091 231.335247 
L 545.277273 229.791101 
L 546.545455 226.591589 
L 547.813636 231.751675 
L 549.081818 233.427733 
L 550.35 233.235469 
L 551.618182 227.497729 
L 552.886364 231.446467 
L 554.154545 195.985425 
L 555.422727 201.863699 
L 556.690909 209.293015 
L 557.959091 219.194173 
L 559.227273 227.308052 
L 560.495455 182.923554 
L 561.763636 219.572665 
L 563.031818 231.68615 
L 564.3 210.506088 
L 565.568182 206.508207 
L 566.836364 207.028096 
L 568.104545 190.527891 
L 569.372727 204.286396 
L 570.640909 204.173451 
L 571.909091 208.108394 
L 573.177273 205.149428 
L 574.445455 205.079592 
L 576.981818 188.38971 
L 578.25 206.707369 
L 579.518182 210.91217 
L 580.786364 212.111448 
L 582.054545 179.133456 
L 583.322727 204.865774 
L 584.590909 177.729843 
L 585.859091 182.764915 
L 587.127273 200.216092 
L 588.395455 209.45769 
L 589.663636 209.506834 
L 590.931818 202.274092 
L 592.2 197.235572 
L 593.468182 199.378063 
L 594.736364 188.425921 
L 596.004545 203.050044 
L 597.272727 196.051813 
L 598.540909 191.094337 
L 599.809091 205.020102 
L 601.077273 189.103587 
L 602.345455 200.177295 
L 603.613636 161.096865 
L 604.881818 173.662127 
L 606.15 168.224422 
L 607.418182 173.575048 
L 608.686364 185.178128 
L 609.954545 177.948835 
L 611.222727 185.963565 
L 612.490909 157.684397 
L 613.759091 154.591794 
L 615.027273 168.829665 
L 616.295455 66.96 
L 617.563636 176.646096 
L 618.831818 180.28359 
L 620.1 181.615643 
L 621.368182 184.844468 
L 622.636364 160.785622 
L 622.636364 160.785622 
" clip-path="url(#pccde9e9a62)" style="fill: none; stroke: #ff0000; stroke-width: 1.5; stroke-linecap: square"/>
   </g>
   <g id="patch_3">
    <path d="M 90 384.48 
L 90 51.84 
" style="fill: none; stroke: #000000; stroke-width: 0.8; stroke-linejoin: miter; stroke-linecap: square"/>
   </g>
   <g id="patch_4">
    <path d="M 648 384.48 
L 648 51.84 
" style="fill: none; stroke: #000000; stroke-width: 0.8; stroke-linejoin: miter; stroke-linecap: square"/>
   </g>
   <g id="patch_5">
    <path d="M 90 384.48 
L 648 384.48 
" style="fill: none; stroke: #000000; stroke-width: 0.8; stroke-linejoin: miter; stroke-linecap: square"/>
   </g>
   <g id="patch_6">
    <path d="M 90 51.84 
L 648 51.84 
" style="fill: none; stroke: #000000; stroke-width: 0.8; stroke-linejoin: miter; stroke-linecap: square"/>
   </g>
   <g id="text_20">
    <!-- Tiempos de Ejecuci贸n de las Soluciones (caso N = M) -->
    <g transform="translate(209.034375 45.84) scale(0.12 -0.12)">
     <defs>
      <path id="DejaVuSans-53" d="M 3425 4513 
L 3425 3897 
Q 3066 4069 2747 4153 
Q 2428 4238 2131 4238 
Q 1616 4238 1336 4038 
Q 1056 3838 1056 3469 
Q 1056 3159 1242 3001 
Q 1428 2844 1947 2747 
L 2328 2669 
Q 3034 2534 3370 2195 
Q 3706 1856 3706 1288 
Q 3706 609 3251 259 
Q 2797 -91 1919 -91 
Q 1588 -91 1214 -16 
Q 841 59 441 206 
L 441 856 
Q 825 641 1194 531 
Q 1563 422 1919 422 
Q 2459 422 2753 634 
Q 3047 847 3047 1241 
Q 3047 1584 2836 1778 
Q 2625 1972 2144 2069 
L 1759 2144 
Q 1053 2284 737 2584 
Q 422 2884 422 3419 
Q 422 4038 858 4394 
Q 1294 4750 2059 4750 
Q 2388 4750 2728 4690 
Q 3069 4631 3425 4513 
z
" transform="scale(0.015625)"/>
     </defs>
     <use xlink:href="#DejaVuSans-54"/>
     <use xlink:href="#DejaVuSans-69" x="57.958984"/>
     <use xlink:href="#DejaVuSans-65" x="85.742188"/>
     <use xlink:href="#DejaVuSans-6d" x="147.265625"/>
     <use xlink:href="#DejaVuSans-70" x="244.677734"/>
     <use xlink:href="#DejaVuSans-6f" x="308.154297"/>
     <use xlink:href="#DejaVuSans-73" x="369.335938"/>
     <use xlink:href="#DejaVuSans-20" x="421.435547"/>
     <use xlink:href="#DejaVuSans-64" x="453.222656"/>
     <use xlink:href="#DejaVuSans-65" x="516.699219"/>
     <use xlink:href="#DejaVuSans-20" x="578.222656"/>
     <use xlink:href="#DejaVuSans-45" x="610.009766"/>
     <use xlink:href="#DejaVuSans-6a" x="673.193359"/>
     <use xlink:href="#DejaVuSans-65" x="700.976562"/>
     <use xlink:href="#DejaVuSans-63" x="762.5"/>
     <use xlink:href="#DejaVuSans-75" x="817.480469"/>
     <use xlink:href="#DejaVuSans-63" x="880.859375"/>
     <use xlink:href="#DejaVuSans-69" x="935.839844"/>
     <use xlink:href="#DejaVuSans-f3" x="963.623047"/>
     <use xlink:href="#DejaVuSans-6e" x="1024.804688"/>
     <use xlink:href="#DejaVuSans-20" x="1088.183594"/>
     <use xlink:href="#DejaVuSans-64" x="1119.970703"/>
     <use xlink:href="#DejaVuSans-65" x="1183.447266"/>
     <use xlink:href="#DejaVuSans-20" x="1244.970703"/>
     <use xlink:href="#DejaVuSans-6c" x="1276.757812"/>
     <use xlink:href="#DejaVuSans-61" x="1304.541016"/>
     <use xlink:href="#DejaVuSans-73" x="1365.820312"/>
     <use xlink:href="#DejaVuSans-20" x="1417.919922"/>
     <use xlink:href="#DejaVuSans-53" x="1449.707031"/>
     <use xlink:href="#DejaVuSans-6f" x="1513.183594"/>
     <use xlink:href="#DejaVuSans-6c" x="1574.365234"/>
     <use xlink:href="#DejaVuSans-75" x="1602.148438"/>
     <use xlink:href="#DejaVuSans-63" x="1665.527344"/>
     <use xlink:href="#DejaVuSans-69" x="1720.507812"/>
     <use xlink:href="#DejaVuSans-6f" x="1748.291016"/>
     <use xlink:href="#DejaVuSans-6e" x="1809.472656"/>
     <use xlink:href="#DejaVuSans-65" x="1872.851562"/>
     <use xlink:href="#DejaVuSans-73" x="1934.375"/>
     <use xlink:href="#DejaVuSans-20" x="1986.474609"/>
     <use xlink:href="#DejaVuSans-28" x="2018.261719"/>
     <use xlink:href="#DejaVuSans-63" x="2057.275391"/>
     <use xlink:href="#DejaVuSans-61" x="2112.255859"/>
     <use xlink:href="#DejaVuSans-73" x="2173.535156"/>
     <use xlink:href="#DejaVuSans-6f" x="2225.634766"/>
     <use xlink:href="#DejaVuSans-20" x="2286.816406"/>
     <use xlink:href="#DejaVuSans-4e" x="2318.603516"/>
     <use xlink:href="#DejaVuSans-20" x="2393.408203"/>
     <use xlink:href="#DejaVuSans-3d" x="2425.195312"/>
     <use xlink:href="#DejaVuSans-20" x="2508.984375"/>
     <use xlink:href="#DejaVuSans-4d" x="2540.771484"/>
     <use xlink:href="#DejaVuSans-29" x="2627.050781"/>
    </g>
   </g>
   <g id="legend_1">
    <g id="patch_7">
     <path d="M 97 89.19625 
L 180.85625 89.19625 
Q 182.85625 89.19625 182.85625 87.19625 
L 182.85625 58.84 
Q 182.85625 56.84 180.85625 56.84 
L 97 56.84 
Q 95 56.84 95 58.84 
L 95 87.19625 
Q 95 89.19625 97 89.19625 
z
" style="fill: #ffffff; opacity: 0.8; stroke: #cccccc; stroke-linejoin: miter"/>
    </g>
    <g id="line2d_20">
     <path d="M 99 64.938437 
L 109 64.938437 
L 119 64.938437 
" style="fill: none; stroke: #0000ff; stroke-width: 1.5; stroke-linecap: square"/>
    </g>
    <g id="text_21">
     <!-- Soluci贸n 1 -->
     <g transform="translate(127 68.438437) scale(0.1 -0.1)">
      <use xlink:href="#DejaVuSans-53"/>
      <use xlink:href="#DejaVuSans-6f" x="63.476562"/>
      <use xlink:href="#DejaVuSans-6c" x="124.658203"/>
      <use xlink:href="#DejaVuSans-75" x="152.441406"/>
      <use xlink:href="#DejaVuSans-63" x="215.820312"/>
      <use xlink:href="#DejaVuSans-69" x="270.800781"/>
      <use xlink:href="#DejaVuSans-f3" x="298.583984"/>
      <use xlink:href="#DejaVuSans-6e" x="359.765625"/>
      <use xlink:href="#DejaVuSans-20" x="423.144531"/>
      <use xlink:href="#DejaVuSans-31" x="454.931641"/>
     </g>
    </g>
    <g id="line2d_21">
     <path d="M 99 79.616562 
L 109 79.616562 
L 119 79.616562 
" style="fill: none; stroke: #ff0000; stroke-width: 1.5; stroke-linecap: square"/>
    </g>
    <g id="text_22">
     <!-- Soluci贸n 2 -->
     <g transform="translate(127 83.116562) scale(0.1 -0.1)">
      <use xlink:href="#DejaVuSans-53"/>
      <use xlink:href="#DejaVuSans-6f" x="63.476562"/>
      <use xlink:href="#DejaVuSans-6c" x="124.658203"/>
      <use xlink:href="#DejaVuSans-75" x="152.441406"/>
      <use xlink:href="#DejaVuSans-63" x="215.820312"/>
      <use xlink:href="#DejaVuSans-69" x="270.800781"/>
      <use xlink:href="#DejaVuSans-f3" x="298.583984"/>
      <use xlink:href="#DejaVuSans-6e" x="359.765625"/>
      <use xlink:href="#DejaVuSans-20" x="423.144531"/>
      <use xlink:href="#DejaVuSans-32" x="454.931641"/>
     </g>
    </g>
   </g>
  </g>
 </g>
 <defs>
  <clipPath id="pccde9e9a62">
   <rect x="90" y="51.84" width="558" height="332.64"/>
  </clipPath>
 </defs>
</svg>
